<?xml version="1.0" encoding="utf-8"?>
<!-- Generator: Adobe Illustrator 22.1.0, SVG Export Plug-In . SVG Version: 6.00 Build 0)  -->
<svg version="1.1" id="Слой_1" xmlns="http://www.w3.org/2000/svg" xmlns:xlink="http://www.w3.org/1999/xlink" x="0px" y="0px"
	 viewBox="0 0 100 100" style="height:150px; width: 150px;" xml:space="preserve" class="hovNo">
<style type="text/css">
	.st0{clip-path:url(#SVGID_2_);fill:none;stroke:#000000;stroke-width:0.51;}
	.st1{clip-path:url(#SVGID_2_);fill:#FFFFFF;}
	.st2{clip-path:url(#SVGID_2_);fill:none;stroke:#2B2B27;stroke-width:0.51;}
	.st3{fill:#FFFFFF;}
</style>
<g>
	<defs>
		<rect id="SVGID_1_" x="3.6" y="26.5" width="90.3" height="44.3"/>
	</defs>
	<clipPath id="SVGID_2_">
		<use xlink:href="#SVGID_1_"  style="overflow:visible;"/>
	</clipPath>
	<path class="st0" d="M12.5,27c0,0-2.3,0-2.3,2.4v30.8c0,0,0,2.4,2.3,2.4h78.8c0,0,2.3,0,2.3-2.4V29.4c0,0,0-2.4-2.3-2.4H12.5z"/>
	<path class="st1" d="M6.3,34.8c0,0-2.3,0-2.3,2.4V68c0,0,0,2.4,2.3,2.4h78.8c0,0,2.3,0,2.3-2.4V37.2c0,0,0-2.4-2.3-2.4H6.3z"/>
	<path class="st0" d="M6.3,34.8c0,0-2.3,0-2.3,2.4V68c0,0,0,2.4,2.3,2.4h78.8c0,0,2.3,0,2.3-2.4V37.2c0,0,0-2.4-2.3-2.4H6.3z"/>
	<path class="st0" d="M8,36.7c0,0-2,0-2,2.2v27.6c0,0,0,2.2,2,2.2h75.5c0,0,2,0,2-2.2V38.8c0,0,0-2.2-2-2.2H8z"/>
	<path class="st0" d="M4.3,36.1c0,0,5.9-9,8-9"/>
	<path class="st0" d="M87,35.2c0,0,4.7-5.9,6-7.6"/>
	<path class="st0" d="M86.8,69.8c0,0,5.1-6.2,6.4-8"/>
	<polyline class="st2" points="4.5,36 6.5,33.1 11.1,27.5 14.1,27 	"/>
</g>
<polygon class="st3" points="9.6,29.7 10.9,28.3 11.7,31.8 11.1,34.3 9.2,34.3 "/>
<polygon class="st3" points="87.8,60.8 87.8,64 90.9,64 92.8,61.5 92,59.5 "/>
</svg>
